<?xml version="1.0" encoding="utf-8"?>
<!-- Generator: Adobe Illustrator 16.0.4, SVG Export Plug-In . SVG Version: 6.00 Build 0)  -->
<!DOCTYPE svg PUBLIC "-//W3C//DTD SVG 1.1//EN" "http://www.w3.org/Graphics/SVG/1.1/DTD/svg11.dtd" [
	<!ENTITY st0 "fill:#FFFFFF;">
]>
<svg version="1.1" id="Layer_1" xmlns="http://www.w3.org/2000/svg" xmlns:xlink="http://www.w3.org/1999/xlink" x="0px" y="0px"
	 width="313px" height="89.3px" viewBox="-0.4 -75.5 313 89.3" style="enable-background:new -0.4 -75.5 313 89.3;"
	 xml:space="preserve">
<g id="Layer_13">
</g>
<g id="Wordmark_1_">
</g>
<g id="Icon:_Twitter_1_">
	<g id="twitter_x5F_newbird_x5F_boxed_x5F_whiteonblue_xA0_Image_1_">
	</g>
</g>
<g id="Icon:_UChicago_mobile_1_">
	<g id="Shape_11_xA0_Image_1_">
	</g>
	<g id="m">
	</g>
	<g id="bars_1_">
	</g>
</g>
<g id="Icon:_Futurity_1_">
	<g id="Shape_10_xA0_Image_1_">
	</g>
	<g id="futurity_xA0_Image_1_">
	</g>
</g>
<g>
	<polygon style="&st0;" points="61.5,1.5 64.4,1.5 67.5,-3.1 70.2,-3.1 72.1,-7.1 66.8,-7.1 	"/>
	<polygon style="&st0;" points="66.1,4.2 68.8,4.2 70.2,2.2 72.8,2.2 74.8,-1.1 69.5,-1.1 	"/>
	<polygon style="&st0;" points="70.8,7.5 75.5,7.5 77.5,4.9 72.8,4.9 	"/>
</g>
<g>
	<g>
		<path style="&st0;" d="M123.1,0h2.4v1.1c0.5-0.7,1.3-1.3,2.5-1.3c1.1,0,1.9,0.5,2.4,1.3c0.7-0.8,1.6-1.3,2.8-1.3
			c1.8,0,2.8,1,2.8,3V8h-2.4V3.5c0-1.1-0.5-1.6-1.4-1.6c-0.9,0-1.4,0.6-1.4,1.6V8h-2.4V3.5c0-1.1-0.5-1.6-1.4-1.6s-1.4,0.6-1.4,1.6
			V8h-2.4V0z"/>
	</g>
	<g id="Shape_19">
		<g>
			<rect x="123.2" y="-3.8" style="&st0;" width="1.6" height="2.5"/>
		</g>
	</g>
	<g id="Shape_20">
		<g>
			<rect x="126.6" y="-5.4" style="&st0;" width="1.6" height="4.1"/>
		</g>
	</g>
	<g id="Shape_21">
		<g>
			<rect x="129.9" y="-7.1" style="&st0;" width="1.6" height="5.8"/>
		</g>
	</g>
	<g id="Shape_22">
		<g>
			<rect x="133.3" y="-8" style="&st0;" width="1.6" height="6.7"/>
		</g>
	</g>
</g>
<g id="Search">
</g>
<g id="wordmark">
	<path style="&st0;" d="M310.8-71L310.8-71L310.8-71c0-0.8-0.1-1.8-0.1-2.8v-0.2l-0.2,0c-0.3,0.1-1.5,0.1-2.8,0.1h-3.9
		c-0.8,0-1.5,0-2.4-0.1h0l0,0c-0.2,0.1-0.2,0.3-0.2,0.4c0,0.2,0,0.3,0.1,0.4l0.4,0.1c1.1,0.1,1.1,0.2,1.1,2.5v7.6
		c0,2.2,0,2.3-1.1,2.5l-0.6,0.1l0,0c-0.1,0.1-0.1,0.3-0.1,0.5c0,0.2,0.1,0.3,0.2,0.3l0,0h0c1,0,1.7-0.1,2.6-0.1c0.8,0,1.6,0,2.8,0.1
		h0l0,0c0.1-0.1,0.2-0.3,0.2-0.4c0-0.2,0-0.3-0.1-0.4l-0.8-0.1c-1.1-0.1-1.1-0.2-1.1-2.5V-66c0-0.4,0-0.4,0.5-0.4h1.4
		c0.7,0,1.3,0,1.6,0.1c0.3,0.1,0.5,0.3,0.6,0.7l0.2,0.9l0,0c0.2,0.2,0.7,0.2,0.8,0l0,0v-0.1c0-0.2,0-0.5,0-0.8
		c0-0.4-0.1-0.8-0.1-1.2c0-0.4,0-0.9,0.1-1.3c0-0.3,0-0.6,0-0.8v-0.1l0,0c-0.1-0.2-0.3-0.2-0.4-0.2c-0.2,0-0.3,0.1-0.4,0.2l-0.2,0.9
		c-0.1,0.5-0.3,0.6-0.4,0.6c-0.2,0.1-0.9,0.1-1.7,0.1h-1.4c-0.5,0-0.5,0-0.5-0.4v-4.4c0-0.7,0-0.7,0.5-0.7h1.3c0.9,0,1.6,0,2,0.1
		c0.9,0.2,1.2,0.8,1.4,1.9l0,0.1l0,0c0.1,0.1,0.2,0.1,0.3,0.1C310.5-70.8,310.7-70.9,310.8-71L310.8-71z M296.7-67
		c0-3.6-2.3-7.4-7.5-7.4c-4.4,0-7.6,3.3-7.6,7.6c0,3.6,2.6,7.3,7.6,7.3C293.5-59.5,296.7-62.7,296.7-67L296.7-67z M294.3-66.3
		c0,4.3-2.6,5.9-4.8,5.9c-4.3,0-5.5-4.4-5.5-7c0-4.4,2.6-5.9,4.9-5.9C292.9-73.3,294.3-69.5,294.3-66.3L294.3-66.3z M277.1-30.5
		c0,9.1,6.8,17.1,18,17.1c9.7,0,17.5-7.4,17.5-17.6c0-8.9-5.9-17.3-17.5-17.3C284.7-48.3,277.1-40.6,277.1-30.5L277.1-30.5z
		 M282.1-32.1c0-11,6.8-14.6,12.1-14.6c9.6,0,13.3,9,13.3,17.3c0,9.9-5.8,14.5-11.8,14.5C285.8-14.9,282.1-24.6,282.1-32.1
		L282.1-32.1z M271-73.2c0.1-0.1,0.2-0.2,0.2-0.4c0-0.2-0.1-0.3-0.2-0.4l0,0h-0.1c-1.5,0.1-2.4,0.1-4,0h0l0,0
		c-0.1,0.1-0.2,0.2-0.2,0.3c0,0.2,0,0.3,0.1,0.5l0,0l0.4,0.1c0.4,0.1,0.7,0.2,0.7,0.2c-0.1,0.3-0.8,1.7-1.2,2.5l-0.1,0.2
		c-0.5,1-1.1,2-1.8,3.3c-0.5-1-1.1-2.1-1.6-3.2c-0.2-0.4-0.4-0.8-0.6-1.2c-0.2-0.3-0.6-1.4-0.6-1.5c0,0,0.1-0.1,0.7-0.2l0.3-0.1l0,0
		c0.1-0.1,0.2-0.3,0.1-0.5c0-0.1-0.1-0.2-0.2-0.3l0,0h0c-0.5,0-1.3,0.1-2.2,0.1c-1,0-1.7,0-2.4-0.1h0l0,0c-0.1,0.1-0.2,0.2-0.2,0.3
		c0,0.2,0,0.3,0.1,0.5l0,0l0.6,0.1c0.6,0.1,0.8,0.1,1.5,1.5l2.5,4.8c0.6,1.1,0.7,1.4,0.7,2.5v1.1c0,2.3-0.1,2.4-1.1,2.5l-0.7,0.1
		l0,0c-0.1,0.1-0.1,0.3-0.1,0.5c0,0.2,0.1,0.3,0.2,0.3l0,0h0c1.1,0,1.9-0.1,2.7-0.1c0.9,0,1.6,0,2.9,0.1h0l0,0
		c0.1-0.1,0.2-0.2,0.2-0.3c0-0.1,0-0.3-0.1-0.5l0,0l-0.9-0.1c-1-0.1-1.1-0.2-1.1-2.5v-1.1c0-1.6,0-1.7,1-3.3l1.3-2.3
		c0.1-0.2,0.2-0.4,0.3-0.6c0.8-1.4,1.4-2.5,2.3-2.6L271-73.2L271-73.2L271-73.2z M263.6-47.5c-0.9-0.2-3.5-0.8-6.4-0.8
		c-7.6,0-12.6,2.4-16,5.9c-3.1,3.3-4.5,7.7-4.5,12c0,4.4,1.6,8.4,4.6,11.5c3.9,3.9,9.4,5.6,15.4,5.6c2.7,0,6.4-0.6,9-1.3
		c1-0.3,1.9-0.5,2.5-0.5c0.2-0.2,0.2-0.5,0.1-0.6c-0.9-0.4-1.2-1.6-1.2-3.6v-2.8c0-2.6,0-4,2.2-4.2l0.8-0.1c0.3-0.3,0.3-1.1-0.1-1.3
		c-1.7,0.1-3.4,0.2-5.3,0.2c-3,0-5.8-0.1-7.2-0.2c-0.4,0.2-0.4,1.1,0,1.3l2.2,0.3c3.1,0.4,3.3,0.7,3.3,4.9v2c0,1.6-0.3,2.5-0.5,2.9
		c-0.6,0.9-2.4,1.5-5.6,1.5c-10.1,0-15.1-7.6-15.1-17.3c0-7.6,4.3-14.5,14.1-14.5c5.1,0,8.9,1.7,10.3,7.2c0.3,0.3,1.2,0.3,1.4-0.2
		c-0.5-3-0.8-5.7-0.8-7.3C266.2-47,264.6-47.3,263.6-47.5L263.6-47.5z M255-74.3L255-74.3l0-0.1c-0.1-0.2-0.3-0.2-0.4-0.2
		c0,0-0.1,0-0.2,0l-0.1,0l0,0.1c-0.3,0.5-0.4,0.5-1.5,0.5h-8.7c-0.9,0-1.4-0.1-1.4-0.5l0-0.1l0,0c-0.1-0.1-0.2-0.1-0.3-0.1
		c-0.1,0-0.2,0-0.3,0.1l-0.1,0l0,0.1c-0.1,0.8-0.5,2.2-0.8,3.1l0,0.1l0,0.1c0.1,0.3,0.6,0.4,0.8,0.2l0,0l0,0
		c0.2-0.5,0.4-0.9,0.9-1.4c0.5-0.4,1.5-0.5,2.5-0.5h1.2c0.5,0,0.5,0,0.5,0.5v9.4c0,2.3-0.1,2.4-1.1,2.5l-0.8,0.1l-0.1,0
		c-0.1,0.1-0.2,0.2-0.2,0.4c0,0.1,0.1,0.3,0.2,0.4l0,0h0c1.3,0,2.1-0.1,2.9-0.1c0.8,0,1.5,0,2.8,0.1h0l0,0c0.2-0.1,0.2-0.3,0.2-0.4
		c0-0.2,0-0.3-0.1-0.4l-0.7-0.1c-1-0.1-1.1-0.2-1.1-2.5v-9.4c0-0.2,0-0.4,0-0.4c0,0,0.3,0,0.4,0h1.5c1.1,0,1.9,0.2,2.3,0.5
		c0.2,0.1,0.4,0.7,0.5,1.4l0,0l0,0c0.1,0.1,0.2,0.2,0.4,0.2c0.2,0,0.4-0.1,0.4-0.2l0,0l0,0C254.7-71.8,254.8-73.5,255-74.3L255-74.3
		z M235.9-63.1v-7.5c0-2.3,0.1-2.4,1.1-2.5l0.6,0l0,0c0.1-0.1,0.2-0.2,0.1-0.4c0-0.1,0-0.3-0.2-0.4l0,0h0c-1,0-1.7,0.1-2.6,0.1
		c-0.9,0-1.6,0-2.6-0.1h0l0,0c-0.2,0.1-0.2,0.3-0.2,0.4c0,0.2,0,0.3,0.1,0.4l0,0l0.6,0c1.1,0.1,1.1,0.2,1.1,2.5v7.5
		c0,2.3-0.1,2.4-1.1,2.5l-0.6,0.1l0,0c-0.1,0.1-0.1,0.3-0.1,0.5c0,0.2,0.1,0.3,0.2,0.3l0,0h0c1.1,0,1.8-0.1,2.6-0.1
		c0.8,0,1.5,0,2.6,0.1h0l0,0c0.2-0.1,0.2-0.3,0.2-0.4c0-0.2,0-0.3-0.1-0.4l-0.6-0.1C235.9-60.8,235.9-60.9,235.9-63.1L235.9-63.1z
		 M232.4-15.4c-2.2-0.3-2.8-1-4.3-5.3l-6.9-20.3c-0.8-2.2-1.6-4.5-2.2-6.8c-0.1-0.4-0.5-0.5-0.8-0.5c-0.6,0.7-1.4,1.6-2.6,1.9
		c0.2,0.8-0.2,1.8-0.9,3.6l-5.1,13.6c-2.1,5.7-3.5,8.9-4.4,11.2c-0.7,1.8-1.8,2.4-3,2.5l-1.7,0.2c-0.3,0.3-0.2,1.1,0.1,1.3
		c1.4-0.1,3.2-0.2,4.8-0.2c2.4,0.1,3.9,0.1,5.2,0.2c0.5-0.2,0.5-1,0.1-1.3l-1.7-0.2c-1.2-0.1-1.5-0.4-1.5-1c0-0.6,0.4-1.9,1.1-4.2
		l1.8-5.3c0.4-1.1,0.7-1.2,1.9-1.2h7.6c1.5,0,1.7,0.2,2.1,1.3l2.2,6.9c0.4,1.2,0.7,2.1,0.7,2.7c0,0.5-0.7,0.8-1.8,0.9l-1.5,0.2
		c-0.4,0.3-0.3,1.1,0.1,1.3c1.5-0.1,3.4-0.2,5.8-0.2c2.3,0,4,0.1,6.1,0.2c0.3-0.2,0.4-1,0-1.3L232.4-15.4L232.4-15.4z M219.4-29.2
		h-6.2c-1.4,0-1.5-0.1-1.1-1.2l3.2-8.8c0.6-1.5,1.1-2.7,1.2-3h0.1c0.3,0.6,0.8,2,1.2,3.2l2.7,8.2C221-29.4,220.9-29.2,219.4-29.2
		L219.4-29.2z M221.4-71.2c0-0.8,0.3-2.2,2.3-2.2c1.9,0,2.4,1.2,2.7,2.3l0,0.1c0.1,0.1,0.2,0.1,0.3,0.1c0.2,0,0.4-0.1,0.5-0.2l0,0v0
		c0-0.9-0.2-2.1-0.4-2.6l0-0.1h-0.1c-0.1,0-0.4,0-0.7-0.1c-0.5-0.1-1.3-0.3-2-0.3c-2.7,0-4.5,1.5-4.5,3.8c0,1.9,1.5,3.2,2.3,3.7
		l2,1.3c1.4,0.9,1.6,1.9,1.6,2.8c0,1.1-0.8,2.3-2.5,2.3c-2.1,0-3.1-1.6-3.5-3l0,0c-0.1-0.1-0.2-0.1-0.3-0.1c-0.1,0-0.3,0.1-0.4,0.2
		l0,0v0.1c0,0.9,0.3,2.5,0.6,3l0,0l0,0c0.4,0.2,1.6,0.8,3.4,0.8c2.8,0,4.6-1.6,4.6-4.1c0-1.7-0.9-3-2.7-4.2l-1.7-1
		C222.5-69.1,221.4-70,221.4-71.2L221.4-71.2z M216.1-59.7c0.1-0.1,0.1-0.2,0.1-0.3c0-0.1-0.1-0.2-0.2-0.2l0,0c-0.5,0-1-0.2-1.4-0.5
		c-1.4-1.2-2.6-3-4.2-5.5c-0.1-0.2-0.1-0.3-0.1-0.3c0.7-0.3,2.7-1.3,2.7-3.6c0-1.8-1-2.6-1.8-3.1c-1.1-0.6-2.4-0.7-3.6-0.7
		c-1.9,0-3.4,0.1-4.7,0.2l-0.1,0c-0.1,0.1-0.2,0.2-0.2,0.4c0,0.2,0,0.4,0.2,0.4l0,0l0.7,0.1c0.7,0.1,0.8,0.2,0.8,2.3v7.5
		c0,2.2,0,2.3-1.1,2.5l-0.6,0.1l0,0c-0.1,0.1-0.1,0.3-0.1,0.5c0,0.1,0.1,0.2,0.2,0.3l0,0h0c0.9,0,1.7-0.1,2.6-0.1
		c0.9,0,1.6,0,2.5,0.1h0l0,0c0.2-0.1,0.2-0.3,0.2-0.4c0-0.2,0-0.3-0.1-0.4l0,0l-0.5-0.1c-1.1-0.2-1.1-0.2-1.1-2.5v-2.6
		c0-0.3,0-0.3,0.8-0.3c0.8,0,1.1,0.2,1.4,0.6c0.3,0.5,0.7,1,1,1.6c0.4,0.6,0.7,1.2,1,1.6c1.4,2.1,2.5,2.7,4.5,2.7
		C215.5-59.5,215.9-59.6,216.1-59.7L216.1-59.7L216.1-59.7z M209.8-67.5c-0.6,0.5-1.4,0.5-2.1,0.5c-0.9,0-1.2,0-1.3-0.1
		c0-0.1,0-0.3,0-0.6v-4.9c0-0.5,0-0.5,1.2-0.5c2.4,0,3.2,1.7,3.2,3.1C210.8-68.8,210.5-68.1,209.8-67.5L209.8-67.5z M199-62.8
		L199-62.8L199-62.8c-0.1-0.3-0.3-0.4-0.5-0.4c-0.1,0-0.2,0-0.3,0.1l-0.1,0c-0.6,1.2-1.1,1.8-1.4,2c-0.4,0.2-1.1,0.3-2.6,0.3
		c-1.8,0-2.2-0.2-2.4-0.4c-0.3-0.3-0.4-1-0.4-2.1v-3c0-0.4,0-0.4,0.5-0.4h1.2c0.7,0,1.3,0,1.6,0.1c0.3,0.1,0.4,0.3,0.5,0.7l0.2,0.8
		l0,0.1c0.1,0.1,0.2,0.2,0.4,0.2c0.2,0,0.3-0.1,0.4-0.2l0,0v0c0-0.2,0-0.5,0-0.8c0-0.4-0.1-0.8-0.1-1.2c0-0.4,0-0.9,0.1-1.3
		c0-0.3,0-0.6,0-0.8v-0.1l0,0c-0.1-0.1-0.2-0.2-0.4-0.2c-0.2,0-0.3,0.1-0.4,0.2l-0.2,0.9c-0.1,0.5-0.2,0.5-0.4,0.6
		c-0.2,0.1-0.9,0.1-1.7,0.1h-1.2c-0.5,0-0.5,0-0.5-0.4v-4.2c0-0.7,0-0.7,0.5-0.7h1.5c0.9,0,1.6,0,2,0.1c1,0.2,1.2,0.8,1.4,1.8l0,0.1
		l0,0.1c0.1,0.1,0.2,0.1,0.3,0.1s0.3-0.1,0.4-0.2l0-0.1l0-0.3c-0.1-1.2-0.2-2.3-0.3-2.6l0-0.1l-0.1,0c-0.2,0.1-1.5,0.1-2.8,0.1h-4
		c-0.8,0-1.5,0-2.5-0.1h0l0,0c-0.2,0.1-0.2,0.3-0.2,0.4c0,0.2,0,0.3,0.1,0.4l0.4,0.1c1.1,0.1,1.1,0.3,1.1,2.5v7.6
		c0,2.3-0.1,2.4-1.2,2.5l-0.8,0.1l0,0c-0.1,0.1-0.1,0.3-0.1,0.5c0,0.2,0.1,0.3,0.2,0.3l0,0h0c1.2,0,1.9-0.1,2.9-0.1h1.9
		c1.8,0,3.7,0,5.6,0.1h0.1l0-0.1C198.3-60.4,198.8-62,199-62.8L199-62.8z M184.5-73.3c0.1-0.1,0.1-0.3,0.1-0.4
		c0-0.2-0.1-0.3-0.2-0.3l0,0h0c-0.7,0-1.4,0.1-2,0.1c-0.8,0-1.6,0-2.2-0.1h-0.1l0,0c-0.1,0.1-0.2,0.2-0.2,0.4c0,0.2,0,0.3,0.1,0.4
		l0,0l0.4,0.1c0.7,0.1,0.8,0.2,0.8,0.2c0,0.1,0,0.3-0.2,0.8c-0.4,0.9-1.4,3.3-2,4.7c-0.2,0.4-0.4,0.8-0.6,1.3
		c-0.4,0.9-0.9,2.1-1.3,3c-1-2.3-1.9-4.6-2.8-6.9c-0.6-1.5-1-2.6-1-2.9c0-0.1,0.2-0.2,0.8-0.2l0.4-0.1l0,0c0.1-0.1,0.2-0.2,0.1-0.4
		c0-0.2-0.1-0.3-0.2-0.4l0,0h-0.1c-0.9,0-1.7,0.1-2.5,0.1c-0.9,0-1.5,0-2.2-0.1h-0.1l0,0c-0.1,0.1-0.2,0.2-0.2,0.4
		c0,0.2,0,0.3,0.2,0.4l0,0l0.4,0.1c0.8,0.1,1.1,0.5,1.6,1.6l3.7,9.1c0.4,1.1,0.8,2,1,2.8l0,0.1l0.1,0c0.1,0.1,0.2,0.1,0.4,0.1
		c0.1,0,0.2,0,0.3-0.1l0.1,0l0,0c0.4-1.1,1.4-3.6,2.2-5.5l1.1-2.6c1-2.2,1.8-3.9,2.3-4.8c0.3-0.4,0.5-0.6,1-0.7L184.5-73.3
		L184.5-73.3L184.5-73.3z M170.8-44c-3.8,3-6.4,7.8-6.4,13.4c0,6.5,3.1,11.1,7.2,13.9c3.7,2.5,8,3.4,12.6,3.4c3.2,0,6.9-0.8,8-1.2
		c0.6-0.2,1.2-0.4,1.8-0.5c0.8-1,2.1-4.3,2.4-6.9c-0.2-0.4-1-0.5-1.3-0.2c-1.2,3-4,7.2-10.5,7.2c-8.3,0-15-5.9-15-16.4
		c0-10.4,6.6-15.3,14.3-15.3c7.3,0,9.6,3.9,10.3,7.4c0.4,0.3,1.1,0.3,1.4-0.1c-0.4-3.1-0.6-6.3-0.7-7.4c-0.5,0.1-0.8-0.1-1.4-0.2
		c-2.4-0.7-6.2-1.2-8.9-1.2C179.2-48.3,174.5-46.9,170.8-44L170.8-44z M164.4-63.1v-7.5c0-2.3,0.1-2.4,1.1-2.5l0.6,0l0,0
		c0.1-0.1,0.2-0.2,0.1-0.4c0-0.1,0-0.3-0.2-0.4l0,0h0c-1,0-1.7,0.1-2.6,0.1c-0.9,0-1.6,0-2.6-0.1h0l0,0c-0.2,0.1-0.2,0.3-0.2,0.4
		c0,0.2,0,0.3,0.1,0.4l0,0l0.6,0c1.1,0.1,1.1,0.3,1.1,2.5v7.5c0,2.3-0.1,2.4-1.1,2.5l-0.6,0.1l0,0c-0.1,0.1-0.1,0.3-0.1,0.5
		c0,0.2,0.1,0.3,0.2,0.3l0,0h0c1.1,0,1.8-0.1,2.6-0.1c0.8,0,1.6,0,2.6,0.1h0l0,0c0.2-0.1,0.2-0.3,0.2-0.4c0-0.2,0-0.3-0.1-0.4
		l-0.6-0.1C164.4-60.8,164.4-60.9,164.4-63.1L164.4-63.1z M153.8-21.8v-17.9c0-5.3,0.1-6.2,3.1-6.5l1.3-0.1c0.3-0.2,0.2-1.1-0.1-1.3
		c-2.5,0.1-4.2,0.2-6.3,0.2c-2.1,0-3.8-0.1-6.4-0.2c-0.3,0.2-0.4,1.1-0.1,1.3l1.3,0.1c3,0.3,3.1,1.1,3.1,6.5v17.9
		c0,5.3-0.1,6-3.1,6.4l-1.3,0.2c-0.3,0.3-0.2,1.1,0.1,1.3c2.5-0.1,4.2-0.2,6.4-0.2c2,0,3.7,0.1,6.3,0.2c0.3-0.2,0.4-1.1,0.1-1.3
		l-1.3-0.2C153.9-15.8,153.8-16.5,153.8-21.8L153.8-21.8z M156.4-73.3c0.1-0.1,0.2-0.3,0.1-0.4c0-0.2-0.1-0.3-0.2-0.3l0,0h-0.1
		c-0.7,0-1.2,0.1-2.2,0.1c-0.7,0-1.4,0-2.5-0.1h0l0,0c-0.1,0-0.2,0.2-0.2,0.3c0,0.2,0,0.4,0.1,0.5l0,0l0.4,0.1
		c0.7,0.1,1.1,0.2,1.2,0.3c0.3,0.4,0.4,2,0.4,4.3v4.5c0,0.2,0,0.4,0,0.6c-0.7-0.8-1.5-1.6-2.4-2.7l-2.9-3.3
		c-2.1-2.3-3.3-3.9-3.5-4.6l0-0.1l-0.1,0c-0.3,0-0.6,0.1-0.9,0.1c-0.4,0-1.5,0-2.4-0.1h0l0,0c-0.1,0.1-0.2,0.2-0.2,0.3
		c0,0.2,0,0.4,0.1,0.5l0,0l0.4,0.1c0.6,0.1,1,0.2,1.2,0.5c0.4,0.4,0.4,0.8,0.4,1.4v6.3c0,1,0,3.4-0.3,4.1c-0.1,0.1-0.2,0.3-0.8,0.3
		l-0.6,0.1l0,0c-0.1,0.1-0.1,0.2-0.1,0.4c0,0.2,0.1,0.3,0.2,0.4l0.1,0h0.1c0.7,0,1.3-0.1,2.2-0.1c0.7,0,1.4,0,2.5,0.1h0l0,0
		c0.1-0.1,0.2-0.2,0.2-0.3c0-0.2,0-0.3-0.1-0.4l0-0.1l-0.7-0.1c-0.5,0-0.9-0.2-0.9-0.3c-0.2-0.4-0.4-2-0.4-4.3v-4.6
		c0-0.4,0-0.8,0-1.1c0.3,0.4,0.9,1,1.4,1.6c0.3,0.4,0.7,0.8,0.9,1l4.9,5.5c1.6,1.8,2.4,2.8,2.7,3.2l0.1,0.1h0.1
		c0.3,0,0.5-0.1,0.5-0.3l0,0v0c0-0.2-0.1-1.1-0.1-3.7v-5.3c0-1.1,0-3.3,0.3-4c0-0.1,0.3-0.2,1.1-0.4L156.4-73.3L156.4-73.3
		L156.4-73.3z M137.6-73.3c0.1-0.1,0.1-0.3,0.1-0.4c0-0.1-0.1-0.2-0.2-0.3l0,0h-0.1c-0.7,0-1.3,0.1-2.2,0.1c-0.8,0-1.6,0-2.4-0.1h0
		l0,0c-0.1,0.1-0.2,0.2-0.2,0.3c0,0.2,0,0.3,0.1,0.4l0,0.1l0.6,0c0.5,0,0.8,0.2,0.9,0.4c0.2,0.4,0.4,1.9,0.4,4.3v2.4
		c0,2.5-0.7,5.4-4,5.4c-2.8,0-4.1-1.7-4.1-5.4v-4.5c0-2.2,0.1-2.4,1.1-2.5l0.5,0l0,0c0.1-0.1,0.2-0.2,0.1-0.4c0-0.1-0.1-0.3-0.2-0.4
		l0,0h0c-1,0-1.7,0.1-2.6,0.1c-0.9,0-1.6,0-2.6-0.1h0l0,0c-0.1,0.1-0.2,0.2-0.2,0.4c0,0.2,0,0.3,0.1,0.4l0,0l0.6,0
		c1,0.1,1.1,0.3,1.1,2.5v5c0,2.5,0.5,4.1,1.7,5.1c0.9,0.8,2.3,1.2,4,1.2c1.7,0,3.2-0.6,4.1-1.6c1-1.1,1.5-2.8,1.5-5.1v-2.4
		c0-1.1,0-3.6,0.3-4.2c0.1-0.2,0.5-0.4,0.9-0.4L137.6-73.3L137.6-73.3L137.6-73.3z M113.4-46.4c0.3-0.2,0.2-1.1-0.1-1.3
		c-2.2,0.1-3.9,0.2-5.9,0.2c-2.2,0-3.9-0.1-6.4-0.2c-0.3,0.2-0.4,1.1-0.1,1.3l1.3,0.1c2.6,0.2,3,1.1,3,6.4v18.2
		c0,5.3-0.1,5.8-2.9,6.3l-0.9,0.2c-0.3,0.3-0.2,1.1,0.1,1.3c2-0.1,3.7-0.2,5.9-0.2c2,0,3.7,0.1,6.4,0.2c0.3-0.2,0.4-1.1,0.1-1.3
		l-1.5-0.2c-2.8-0.3-3.1-1-3.1-6.3v-7.1c0-1.5,0.1-1.6,2.5-1.6h14.4c2.4,0,2.5,0.1,2.5,1.6v7.1c0,5.3,0,5.8-3.1,6.3l-1,0.2
		c-0.3,0.3-0.2,1.1,0.1,1.3c2.2-0.1,4-0.2,6.1-0.2c2,0,3.7,0.1,6.1,0.2c0.3-0.2,0.4-1.1,0.1-1.3l-1.2-0.2c-2.9-0.4-3-1-3-6.3v-18.2
		c0-5.3,0.1-6.1,3-6.4l1.1-0.1c0.3-0.2,0.2-1.1-0.1-1.3c-2.3,0.1-4,0.2-6,0.2c-2.1,0-3.8,0-6.1-0.2c-0.3,0.2-0.4,1.1-0.1,1.3l1,0.1
		c3,0.3,3.1,1.1,3.1,6.4v5.8c0,1.6-0.1,1.6-2.5,1.6h-14.4c-2.4,0-2.5-0.1-2.5-1.6v-5.8c0-5.3,0.1-6.1,3-6.4L113.4-46.4L113.4-46.4z
		 M111.4-62.8L111.4-62.8L111.4-62.8c-0.1-0.3-0.3-0.4-0.5-0.4c-0.1,0-0.2,0-0.3,0.1l0,0.1c-0.6,1.2-1.1,1.8-1.4,2
		c-0.4,0.2-1.1,0.3-2.6,0.3c-1.8,0-2.2-0.2-2.4-0.4c-0.3-0.3-0.4-1-0.4-2.1v-3c0-0.4,0-0.4,0.5-0.4h1.2c0.7,0,1.3,0,1.6,0.1
		c0.3,0.1,0.4,0.3,0.5,0.7l0.2,0.8l0,0.1c0.1,0.1,0.2,0.2,0.4,0.2c0.2,0,0.3-0.1,0.4-0.2l0,0v0c0-0.2,0-0.5,0-0.8
		c0-0.4-0.1-0.8-0.1-1.2c0-0.4,0-0.9,0.1-1.3c0-0.3,0-0.6,0-0.8v-0.1l0,0c-0.1-0.1-0.2-0.2-0.4-0.2c-0.2,0-0.3,0.1-0.4,0.2l-0.2,0.9
		c-0.1,0.5-0.2,0.5-0.4,0.6c-0.2,0.1-0.9,0.1-1.7,0.1h-1.2c-0.5,0-0.5,0-0.5-0.4v-4.2c0-0.7,0-0.7,0.5-0.7h1.5c0.9,0,1.6,0,2,0.1
		c1,0.2,1.2,0.8,1.4,1.8l0,0.1l0,0.1c0.1,0.1,0.2,0.1,0.3,0.1s0.3-0.1,0.4-0.2l0-0.1l0-0.3c-0.1-1.2-0.2-2.3-0.3-2.6l-0.1-0.1
		l-0.1,0c-0.2,0.1-1.5,0.1-2.8,0.1h-4c-0.8,0-1.5,0-2.5-0.1h0l0,0c-0.2,0.1-0.2,0.3-0.2,0.4c0,0.2,0,0.3,0.1,0.4l0.4,0.1
		c1.1,0.1,1.1,0.3,1.1,2.5v7.6c0,2.3-0.1,2.4-1.2,2.5l-0.8,0.1l0,0c-0.1,0.1-0.1,0.3-0.1,0.5c0,0.2,0.1,0.3,0.2,0.3l0,0h0
		c1.2,0,1.9-0.1,2.9-0.1h1.9c1.8,0,3.7,0,5.6,0.1h0.1l0-0.1C110.7-60.4,111.2-62,111.4-62.8L111.4-62.8z M93.8-63.1v-7.6
		c0-2.2,0.1-2.4,1.1-2.5l0.4,0l0.1,0c0.1-0.1,0.2-0.2,0.1-0.4c0-0.1,0-0.3-0.2-0.4l0,0h0c-1,0-1.7,0.1-2.5,0.1c-0.9,0-1.6,0-2.5-0.1
		h0l0,0C90-73.9,90-73.7,90-73.6c0,0.2,0,0.3,0.1,0.4l0.5,0.1c1.1,0.1,1.1,0.3,1.1,2.5v2.4c0,0.5,0,0.5-0.9,0.5h-6
		c-0.9,0-0.9,0-0.9-0.5v-2.4c0-2.2,0.1-2.4,1.1-2.5l0.4,0l0.1,0c0.1-0.1,0.2-0.2,0.1-0.4c0-0.1,0-0.3-0.2-0.4l0,0h0
		c-1,0-1.7,0.1-2.4,0.1c-0.5,0-1,0-1.5,0c-0.3,0-0.7,0-1.1,0h0l0,0c-0.2,0.1-0.2,0.3-0.2,0.4c0,0.2,0,0.3,0.1,0.4l0,0l0.6,0
		c0.9,0.1,1.1,0.3,1.1,2.5v7.6c0,2.2,0,2.3-1.1,2.5l-0.4,0.1l0,0c-0.1,0.1-0.1,0.3-0.1,0.5c0,0.2,0.1,0.3,0.2,0.3l0,0h0
		c0.3,0,0.6,0,0.8,0c0.5,0,1,0,1.6,0c0.8,0,1.5,0,2.7,0.1h0l0,0c0.1-0.1,0.2-0.3,0.2-0.4c0-0.2,0-0.3-0.1-0.4l-0.7-0.1
		c-1-0.1-1.1-0.2-1.1-2.5v-3c0-0.5,0-0.5,0.9-0.5h6c0.9,0,0.9,0,0.9,0.5v3c0,2.2,0,2.3-1.1,2.5l-0.4,0.1l0,0
		C90-60.4,90-60.2,90-60.1c0,0.2,0.1,0.3,0.2,0.3l0,0h0c1,0,1.7-0.1,2.5-0.1c0.8,0,1.6,0,2.5,0.1h0l0,0c0.2-0.1,0.2-0.3,0.2-0.4
		c0-0.2,0-0.3-0.1-0.4l-0.6-0.1C93.9-60.8,93.8-60.9,93.8-63.1L93.8-63.1z M76.5-74.3L76.5-74.3l0-0.1c-0.1-0.2-0.3-0.2-0.4-0.2
		c0,0-0.1,0-0.2,0l-0.1,0l0,0.1C75.6-74,75.5-74,74.4-74h-8.7c-0.9,0-1.4-0.1-1.5-0.5l0-0.1l0,0c-0.1-0.1-0.2-0.1-0.3-0.1
		c-0.1,0-0.2,0-0.3,0.1l-0.1,0l0,0.1c-0.1,0.8-0.5,2.2-0.8,3.1l0,0.1l0,0.1c0.1,0.3,0.6,0.4,0.8,0.2l0,0l0,0
		c0.2-0.5,0.4-0.9,0.9-1.4c0.5-0.4,1.5-0.5,2.5-0.5h1.2c0.5,0,0.5,0,0.5,0.5v9.4c0,2.3-0.1,2.4-1.2,2.5l-0.8,0.1l-0.1,0
		c-0.1,0.1-0.2,0.2-0.2,0.4c0,0.1,0.1,0.3,0.2,0.4l0,0h0c1.3,0,2.1-0.1,2.9-0.1c0.8,0,1.5,0,2.7,0.1h0l0,0c0.1-0.1,0.2-0.3,0.2-0.4
		c0-0.2,0-0.3-0.1-0.4l-0.7-0.1c-1-0.1-1.1-0.2-1.1-2.5v-9.4c0-0.2,0-0.4,0-0.5c0,0,0.3,0,0.4,0h1.5c1.1,0,1.9,0.2,2.3,0.5
		c0.2,0.1,0.4,0.7,0.5,1.4l0,0.1l0,0c0.1,0.1,0.2,0.2,0.4,0.2c0.2,0,0.4-0.1,0.4-0.2l0,0l0,0C76.2-71.8,76.3-73.5,76.5-74.3
		L76.5-74.3z M62.2-30.6c0,6.5,3.1,11.1,7.2,13.9c3.7,2.5,8,3.4,12.6,3.4c3.2,0,6.9-0.8,8-1.2c0.6-0.2,1.2-0.4,1.8-0.5
		c0.8-1,2.1-4.3,2.4-6.9c-0.2-0.4-1-0.5-1.3-0.2c-1.2,3-4,7.2-10.5,7.2c-8.3,0-15-5.9-15-16.4c0-10.4,6.5-15.3,14.3-15.3
		c7.3,0,9.6,3.9,10.3,7.4c0.4,0.3,1.1,0.3,1.4-0.1c-0.4-3.1-0.7-6.3-0.7-7.4c-0.5,0.1-0.8-0.1-1.4-0.2c-2.4-0.7-6.2-1.2-8.9-1.2
		c-5.2,0-9.9,1.4-13.6,4.3C64.7-41,62.2-36.2,62.2-30.6L62.2-30.6z M49.1-39.1v-35.1c-28.2-2.7-49.5,0-49.5,0s0,35.1,0,35.1
		c2.3,23.8,24.6,26.6,24.8,26.6C28.3-13.3,47-17,49.1-39.1L49.1-39.1z M47.9-39.3c-2,21.2-19.7,24.8-23.5,25.5
		c-0.2,0-21.4-2.6-23.5-25.5c0,0,0-33.7,0-33.7s20.2-2.6,47,0L47.9-39.3L47.9-39.3z M40.7-26.8c0.8-1.1,1.2-2.4,1.5-3.7
		c-0.5,0.6-1.1,1.1-1.8,1.4C39.9-27.6,40.1-26,40.7-26.8L40.7-26.8z M41.4-30.2c0.6-0.5,0.9-1.3,1.6-1.5c-0.6-0.5-1.1,0.5-1.4,0.2
		c0.5-0.8,0.8-1.4,0.9-2.4c0-0.5,0.7-1,0.8-1.3c-0.6,0.1-2.2,1-2.5,1.6c-1.1,1.4-1,2.8-5.5,4.8c-0.2,0,0.8-0.8,1.1-1.7
		c0.1-0.4,0.7-2.4,0.3-3.3c-0.9,0.9-0.7,1.3-1,2c-0.7,1.9-1,2-2.7,3.2c-0.2,0.2-1.5,2.1-3.2,2.2c0.2,0,0.1-0.5,0.6-0.8
		c1.9-1.2,1.2-3.9,3.6-4.3c-1.2-0.4-2.1,0.8-2.3,0.6c1-1.4,0.1-2.5,0.3-3.6c-0.3,0.2-0.7,0.6-0.7,0.9c-0.2,2-1.1,2.3-1.2,3.2
		c0.2,1.4-0.9,2.5-1.8,3.5c-0.2-0.8,0.1-1.6,1.1-2.2c0.6-0.4-0.1-1.5-0.1-1.5c-0.2,1.2-0.9,1.6-1.4,1.7c-0.4,0.1,1.3-1.7,1.1-3.4
		c-0.1-0.7-0.3-0.4-0.4-1.2c-1.5,1.6-0.4,2.6-1.9,4.5c-0.7,0.9-1,2.5-1.1,2.5c0-2.3,0.1-1.7,1.1-3.6c0.9-1.6-0.1-3-0.2-4
		C24.9-33,25-30.5,25-31c-0.1-0.5-0.3-1.5,0-2.3c0.4-1.4-0.5-3.5-0.5-3.5c-2.6,4.1-0.4,8.9-0.6,8.9c-1.1-1.8-2-1.9-2.2-3.2
		c-0.1-0.7-1.5-4.8-4-4.9c1.3,1.1,0.9,1.2,1,3c-0.8,4.4,5.4,4.9,5,7.2c-0.8-1.4-2.1-1.9-4.1-3c-0.9-0.7-1.8-1-1.9-2.1
		c0.1-0.8,0.1-0.6,0-1.6c-0.1-0.7-0.8-0.3-1.3-1.8c-1.1,1-0.7,2.1-0.6,2.8c0,0.2,0.2,0.9,0,1.3c-0.4-0.3-0.7-0.8-1.1-1.4
		c-0.8-1-0.8-2.3-1.2-3.1c-0.2-0.4-0.4-0.9-0.6-1l0,0c-0.2,1.6-0.1,3,0.6,4.2c0,0-0.2,0.3-0.4,0.4c-0.7-0.2-1.7-0.8-2.1-1.9
		c-0.9,0.7-0.3,1.7-0.3,1.6c-1.9-1,0-4.8-2.7-4.7c0.7,0.7,0.3,1.7,0.2,2.6C8.2-32.1,10-31,10-31c-2-0.7-2.5,0.3-2.4,0.3
		c0,0,3,1.3,7.7,1.8c0.6,0.1,1.5,0.8,1.3,0.8c-0.6,0-1.8-0.8-3.6,0.7c1,0,1.7,1.7,3.4,0.7c4.3-1.2,5.9,0.9,6.6,1.5
		c-0.2,0.3-3.3-2-5.8-0.5c-1.3,0.8-3.5,0.1-5.1-1.2c0.7,1.7,3.6,3.7,4.5,3.7c1.2,0,2.7-1.5,4.3-1.4c2.7,0.1,3.1,2.6,2.8,2.4
		c0,0-2.1-3.5-4.9,0.2c1.3-0.6,3-0.4,4.5,0.3c0.2,0.1-0.4,0.7-0.8,1.2c-0.3,0.3-1.4,2-2.6,0.3c-0.2-0.2-0.8-1.8-4.6-1.5
		c1.5,0.7,3.1,2.4,3.9,3.2c2,2,5.1-2.4,5.2-1.9c0,1,0.5,1.5,0.8,2c0.7,1.4-0.9,1.1-1.7,0.8c0,0,1.6,2.5,2.9,1.1
		c1.5-1.5-1.9-2.7-0.9-3.9c0.6-0.7,2.8,1.5,3.7,1.5c2.6,0.3,2.5-2.2,3.9-2.1c-1.3-1.3-2.7-0.6-3-0.3c-0.9,1-1.9,0.3-2.6-0.2
		c-0.4-0.5-1-0.6-1.6-0.4c-0.3,0,0.6-1,1.6-0.8c2.4,0.5,4.8-0.4,5.4-0.7c1-0.5,1.5-1.5,2.6-2.5c-0.3,0.1-2.4,1.2-3,1.5
		c-1.9,1-3.1-0.3-3.4-0.3c-0.4,0-0.3-0.3,0.3-0.5c2-0.4,3.4-2.2,5.3-2.9C37-29.1,39.7-28.5,41.4-30.2L41.4-30.2z M37.5-32.9
		c-0.1,0.4-0.1,0.7-0.2,1.2c0,0,0.5,0.2,0.7,0.4c0.3-0.3,0.6-0.4,0.9-0.8c-0.1,0-1.3-1.2-1.3-1.1C37.5-33,37.5-33,37.5-32.9
		L37.5-32.9z M37.7-31c0,0-0.5-0.4-0.5-0.3c-0.1,0.2-0.2,0.5-0.3,0.7C36.7-30.3,37.1-30.4,37.7-31L37.7-31z M43.4-36
		c-0.1-4.6-2.9-9.6-2.1-8.7c1.9,2.4,2.5,7.5,3.8,11.8c0,0,0.8,0.4,0.7-5.1c0-1.1-0.5-2.6-1.1-3.7c-1.1-2.1-3.3-5.5-3.3-5.6
		c0.5-0.4,1.9,2.6,3,3.7c0.7,0.8,2.8,1.5,2.9,1.4c-1.6-3.2-5.7-6.2-5.2-6.6c2.9,2.8,3.9,2.9,4,2.7l-2.6-2.6c-0.7-1-1.7-1.8-1.6-1.7
		c1.2,0.3-0.6-1-2-1.4c-0.3-0.1-0.7-0.1-0.7-0.2c0-0.2,0.3-0.1,0.6-0.2c0.2-0.1,0.4-0.2,0.4-0.5c-0.5,0.1-1.1,0-1.5-0.2
		c-0.9-0.4-2.6-0.9-3.4-0.6c-0.5,0.2-0.5,0.2-1,0.5c-0.2-0.1-0.8-0.5-1.6,0.5c-0.3,0.3-0.6,0.7-0.6,0.9c0,0.7,0,0,0.2,0.7
		c0.1,0.3-0.2,0.8-1.5,1.2c-0.5,0.2-0.4,0.6-0.4,0.6c0.2-0.1,0.6-0.4,1.2-0.1c1.1,0.5,1.3-0.3,2-0.9c0,0-0.2,0.8,0,0.8
		c0.9,0.2,0.6,0.8,0.5,0.9c-1.1,1-0.6,1.4-1,2c-0.4,0.6-0.9,0.8-1.8,0.8c-1.2,0,1.5-1.8-1.1-2.6c0.4,0.7,0.6,1.2-0.3,1.8
		c-0.6,0.3-0.3,2-1.8,1.2c0,0-0.1,1.3-0.3,1.3c2,1.8,0.9,2.7,1,5.2c0.6,1.6-0.1,2.4-0.2,2.4c0.1,1.1,0.2,1.7,0.9,2.5
		c0.5,0.6,0,1.6,0.5,2.3c0.5-1.6,0.9-0.9,1.1-3.2c0.2-0.4,0.9-1,1.4-1.1c0,1.4,0.5,2.6,0.4,3.2c0,0,1.2-0.2,1.5-0.1
		c0.3,0.1,0.5,0.5,0.5,0.7c-0.4,0.2-0.4,0.2-1,0.6c-1,0.8-1.5,2.3-1.5,2.3s2.4-1.9,2.6-2.3c0.1-0.3,0.3-0.7,0.4-1.1
		c0,0-1.3-0.8-1.6-1.5c-1.1-2.1,1.7,1.2,1.7,1c0.2-0.7,0.7-1.4,0.7-1.4c-0.2-0.2-0.6-0.3-1.3-1.5c-1.5-2.7,1.8,1.1,1.8,1.1
		c0.9-0.5,0.9,0.2,1,0.9c0,0.1,1.5,1.1,1.5,1.2c0.4-0.4,0.7-0.9,0.9-1.3c0-0.1-2.6-2.4-3.1-3.2c-3.7-6.3,3,2.8,3.3,2.5
		c0.2-0.5,0.2-1.2,0.2-2.1c0,0-1.2-0.9-2-2.2c-3.1-5.1,2,1.5,2,1.5c-0.1-1.1-0.9-5.8-0.3-4.4c0.3,0.7,1.3,3.7,1.1,6.8
		C41.5-35.3,42.9-35.8,43.4-36L43.4-36z M45.4-66.2c0,0.2,0,0.3,0.1,0.4C45.5-65.9,45.5-66,45.4-66.2c0,0-0.1-1.7-1.9-1.7
		c-0.6,0-1.3,0.7-3.2-0.1v2.9c0.7,0.2,2.8-0.9,3.6-1.3C44.6-66.7,45.4-66.5,45.4-66.2L45.4-66.2z M40.3-62v2.9c0,0,1.6,0,3.4-1.2
		c0.5-0.3,1.3-0.2,1.7,0.1l0,0c0,0-0.2-1.9-1.8-1.6C40.7-61.4,40.3-62,40.3-62L40.3-62z M29.4-57.5c1.5,0,7.5,1.6,10.4,1.5v-15.1
		c0,0-4.3,0.6-8-0.8c-3-1.1-7.2,0.8-7.2,0.8c0,0.5,0,14.8,0,14.8S26.2-57.5,29.4-57.5L29.4-57.5z M26.1-62.5c0.1,0,0.6,0,0.7,0
		c0,0.3,0,2.6,0,2.8c0,0.2,0.2,0.3,0.4,0.2c0.1,0,0.2,0,0.1,0.1c-0.2,0.2-0.5,0.6-0.6,0.7c-0.3-0.2-0.5-0.4-0.5-0.6
		C26.2-59.5,26.1-62.2,26.1-62.5L26.1-62.5z M26.9-65.7c0.4-0.2,1.4-0.4,1.8-0.3c0.2,0,0.3,0,0.3-0.1c0-0.1,0.2-0.1,0.2,0
		c0,0.1,0,1.2,0,1.3c0,0.1-0.2,0.1-0.2,0c0-0.2,0-0.2-0.1-0.4c-0.4-0.6-1.5-0.6-2,0.1c-0.2,0.2-0.3,0.7,0,0.7c0.2,0.1,1,0,1.2,0
		c0.3,0,0.9-0.2,0.9-0.2c0.1,0,0.2-0.1,0.2,0c0,0.1,0,0.5,0,0.7c0,0.1-0.1,0.1-0.2,0c-0.1,0-0.7-0.1-0.9-0.1c-0.4,0-1.1-0.2-1.3-0.1
		c-0.2,0.1,0,0.4,0.1,0.6c0.5,0.7,1.5,0.7,1.9,0.2c0.1-0.2,0.1-0.3,0.1-0.4c0-0.1,0.2-0.1,0.2,0c0,0.1,0,1,0,1.1
		c0,0.1-0.2,0.1-0.2,0c0-0.2-0.1-0.2-0.3-0.1c-0.6,0.2-1.3,0.2-1.8-0.1c-0.5-0.3-0.9-0.4-0.9-1.4C25.9-65,26.5-65.5,26.9-65.7
		L26.9-65.7z M30.1-70.3c-0.3,0.1-0.4,0.3-0.5,0.6c-0.1,0.3-0.9,2.8-1,3c-0.2-0.8-1.1-2.7-1.4-3.1c-0.2-0.4-0.5-0.3-0.7-0.3
		c-0.2,0-0.1-0.2,0-0.2c0.2,0,1.6,0.2,2,0.2c0.1,0,0.1,0.2,0,0.2c-0.1,0-0.3,0.1-0.3,0.2c0,0.2,0.5,1.3,0.6,1.5
		c0.1-0.3,0.6-1.5,0.5-1.8s-0.1-0.3-0.3-0.3c-0.2,0-0.2-0.1,0-0.2c0.2,0,0.9-0.1,1.1-0.1C30.3-70.5,30.3-70.4,30.1-70.3L30.1-70.3z
		 M31.6-70.3l-0.3,0.2h-0.2l-0.2-0.2l0-0.4l0.4-0.3l0.4,0.3V-70.3L31.6-70.3z M32.2-67.3l-0.5,0.6h-0.4c-0.2-0.2-0.4-0.4-0.4-0.6
		l0-1.5l-0.5-0.3c-0.1,0.1-0.3,0.1-0.2,0l0.7-0.7l0.2,0l0.5,0.5l0,1.5C31.7-67.5,31.8-67.4,32.2-67.3L32.2-67.3z M34.8-69.1
		c-0.1,0-1.2,0.1-1.2,0.1c-0.1,0,0.1,1.4,0.1,1.5c0,0.1,0.1,0.3,0.3,0.2c0.1-0.1,0.3,0.1,0.1,0.2c-0.1,0.1-0.3,0.6-0.4,0.6
		c-0.2,0.1-0.4-0.3-0.5-0.5c-0.1-0.4-0.2-1.3-0.2-2c0,0-0.5-0.2-0.3-0.3c0.5-0.2,1-0.9,1-1c0.1-0.2,0.2-0.1,0.1,0.1
		c-0.2,0.3-0.1,0.6-0.1,0.8c0,0.1,1,0,1.1,0C34.9-69.3,34.9-69.1,34.8-69.1L34.8-69.1z M33.5-64.2c-0.1,0.5,0.3,0.9,0.7,1.1
		c0.3,0.1,0.7,0.1,0.8,0c0.1,0,0.1-0.1,0.2-0.1c0.1-0.1,0.2,0,0.1,0.1c-0.1,0.1-0.7,0.7-0.9,0.8c-0.2,0-0.5,0-0.8-0.2
		c-0.4-0.5-0.7-0.7-0.6-1.5c0.1-0.6,1.1-1.1,1.3-1.3c0.1,0.1,0.6,0.6,0.7,0.7c-0.1,0.1-0.3,0.2-0.6,0.2c-0.2,0-0.4-0.2-0.6-0.4
		C33.8-64.8,33.6-64.6,33.5-64.2L33.5-64.2z M37.5-66.6L36.9-66c-0.2-0.1-0.3-0.3-0.3-0.5c-0.5,0.1-0.8,0.4-1,0.5
		c-0.2-0.2-0.5-0.6-0.5-0.9c0-0.3,0.2-0.8,0.4-0.9c0,0,0,0,0.1,0c-0.1-0.1-0.2-0.1-0.3-0.2c-0.1-0.1-0.1-0.2,0-0.3
		c0.1-0.2,0.5-0.6,0.9-0.7c0.2,0,0.5,0,1,0.4c-0.1,0.1-0.1,1.4-0.1,1.5C37.2-66.8,37.5-66.6,37.5-66.6L37.5-66.6z M38.7-63.6
		c-0.2,0-0.4,0-0.5-0.1c-0.2,0-0.1-0.2,0-0.2s0.4,0,0.5,0.1C38.8-63.8,38.9-63.6,38.7-63.6L38.7-63.6z M38.7-63.2
		c-0.2,0-0.4,0-0.5-0.1c-0.2-0.1-0.1-0.2,0-0.2c0.1,0,0.4,0,0.5,0.1C38.8-63.4,38.9-63.2,38.7-63.2L38.7-63.2z M35.6-60.4
		c0.2-0.1,0.7-0.5,0.8-0.7c0.3,0.2,0.5,0.4,0.6,0.6c0.2-0.1,0.5-0.3,0.6-0.4c0.2,0.2,0.5,0.4,0.6,0.5c0.1-0.1,0.3,0,0.1,0.1
		c-0.1,0.1-0.5,0.4-0.6,0.5c-0.2-0.1-0.5-0.4-0.6-0.5c-0.1,0-0.2,0.1-0.2,0.1c0,0.2,0,1.8,0,2c-0.3,0-0.5,0-0.6,0c0-0.2,0-1.6,0-1.8
		C36.3-60.3,35.9-60.4,35.6-60.4L35.6-60.4z M35.5-63.4c0-0.8,0.5-1.4,1.4-1.7c0.7,0.2,0.9,0.9,1,1.3c0,0.4-0.2,0.9-0.4,1.2
		c-0.3,0.2-0.5,0.4-0.8,0.7C35.9-62,35.5-62.9,35.5-63.4L35.5-63.4z M32.4-60.8c0.2-0.3,0.5-0.4,0.7-0.6c0.3,0.2,0.3,0.3,0.5,0.5
		c0,0.3-0.1,1.1-0.1,1.3c0,0.2,1,0.4,1,0.1c0-0.4,0-0.8,0-1c0-0.2-0.4-0.2-0.6-0.2c0.3-0.3,0.5-0.5,0.7-0.6c0.2,0.2,0.5,0.4,0.6,0.6
		c0,0.4-0.1,1.2,0,1.5c0.1,0.2,0,0.3,0.2,0.4c-0.2,0.2-0.3,0.2-0.4,0.4c-0.2-0.1-0.5-0.3-0.5-0.6c-0.2,0.2-0.9,0.4-1.1,0.5
		c-0.2-0.2-0.4-0.3-0.4-0.6c0-0.3,0.1-1.1,0-1.3C32.7-60.8,32.6-60.8,32.4-60.8L32.4-60.8z M31.8-63c-0.2-0.1-0.6-0.4-0.7-0.7
		c-0.3,0.4-0.4,0.8-1,0.9c0.3-0.3,0.7-0.9,0.6-1.5c0-0.5-0.3-0.8-0.6-0.9c-0.2,0.1-0.4,0.3-0.5,0.3c-0.1,0.1-0.2-0.1-0.1-0.2
		c0.3-0.1,0.9-0.6,1-0.7c0.3,0.1,0.6,0.3,0.6,0.5c0.2-0.1,0.6-0.5,0.7-0.6c0.1,0.2,0.5,0.5,0.9,0.6c-0.4,0.6-1.2,0.2-1.3,0.1
		c-0.1,0.2-0.2,0.3,0,0.6c0.2,0.4,0.8,0.7,1.2,0.8C32.4-63.7,32-63.1,31.8-63L31.8-63z M30.9-61.1c0,0-0.5-0.2-0.3-0.3
		c0.4-0.2,0.8-0.6,0.9-0.8c0.1-0.2,0.2-0.1,0.1,0.1c-0.1,0.2-0.1,0.6-0.1,0.7c0,0.1,0.3,0.1,0.5,0.1c0.1,0,0.1,0.3,0,0.3
		c-0.1,0-0.5,0-0.5,0c-0.1,0,0,1.4,0,1.5c0,0.1,0.4,0.2,0.5,0.1c0.1-0.1,0.2,0,0.1,0.1c-0.1,0.1-0.3,0.5-0.5,0.5
		c-0.2,0.1-0.5-0.1-0.6-0.3C30.7-59.5,30.9-60.5,30.9-61.1L30.9-61.1z M29.6-58.9c-0.2-0.2-0.4-0.2-0.4-0.4c-0.5,0.2-0.7,0.5-1,0.7
		c-0.2-0.2-0.3-0.5-0.3-0.8c0-0.3,0.3-0.7,0.5-0.9c0,0,0,0-0.1,0c-0.1-0.1-0.2-0.5-0.1-0.6c0.1-0.2,0.6-0.8,1-0.8
		c0.3,0,0.4,0.3,0.7,0.5c-0.1,0.1,0,1.2,0,1.3c0.2,0.3,0.3,0.3,0.5,0.2c0.1-0.1,0.2,0,0.1,0.1C30.2-59.6,29.7-59.1,29.6-58.9
		L29.6-58.9z M29.1-60.3c0-0.2,0-0.5,0-0.6c0-0.2-0.4-0.4-0.4-0.4c-0.1,0-0.2,0-0.3,0.2c-0.1,0.1-0.1,0.5,0,0.6
		C28.7-60.2,28.9-60.3,29.1-60.3L29.1-60.3z M28.5-60.1c-0.3,0.5-0.1,0.6,0.1,0.8c0.2-0.1,0.4-0.2,0.5-0.3c0-0.1,0-0.3,0-0.5
		C28.8-60.1,28.7-60,28.5-60.1L28.5-60.1z M36.1-63.3c0.1,0.3,0.7,0.8,0.9,0.8c0.2-0.3,0.4-0.8,0.3-1.2c0-0.3-0.5-0.7-0.9-0.8
		C35.9-64.3,35.9-63.8,36.1-63.3L36.1-63.3z M36.1-66.5c0.2-0.1,0.3-0.1,0.5-0.1c0-0.1,0-0.2,0-0.3c0-0.1,0-0.3,0-0.5
		c-0.3-0.1-0.6-0.2-0.9-0.4c0,0,0.1,0.1,0.1,0.1C35.5-67.1,35.9-66.6,36.1-66.5L36.1-66.5z M35.4-68.1c0.2,0.2,0.8,0.5,1.1,0.6
		c0-0.3,0-0.5,0-0.6c0-0.2-0.6-0.5-0.7-0.5c-0.1,0-0.3,0.2-0.4,0.4C35.4-68.1,35.4-68.1,35.4-68.1L35.4-68.1z M24.1-54.3
		c-0.5,0.1-1.1,0.3-1.2,0.8c-0.3,0.3-0.3-0.5-0.9-0.1c-0.3,0.3,0.4,1.1,0.2,1.1c-0.6,0.2-0.6-1-0.9-1c-0.5,0.2-1.9,1.4-0.5,2.4
		c0-0.7,1.2-1.4,1.6,0.1c1.2-0.1,1.6,0.7,1.8,1.1c1.8,0.3,1.3,1.5,1.2,1.5c-0.2-0.3-1-1.5-2.2-0.6c-0.3,0.2-0.8,0.4-1.1,0.1
		c0,0.4,0.5,0.8,0.9,0.7c1.1-0.3,1.4,0.7,0.5,1c0.2,0.3,0.5,0.3,0.9,0.1c0.5-0.3,0.5-0.6,0.7-0.7c0.3,1.5-1.6,1.6-2.2,1.7
		c0.1,0.3,0.3,0.4,0.7,0.5c-2,0.1-2.4,1.9-2.2,3c0.4,0,1.1-0.9,1.1-0.4c-1.4,1.5-1.9,3.5-1.1,4.7c0.4-0.1,0.5-0.5,0.6-0.8
		c0.1,0,0.8,0.3-0.4,1.7c-0.1,0.4-0.5,1.4,0.4,1.7c0.3-0.4,0.3-0.7,0.4-1.2c0.3-0.1,0.4,0.7,0.3,1c-1.2,0.5-1,4,0.3,5.9
		c-0.6-1.4-0.5-3.2,0-4.6c0.4-1.1,1.3-3.6,1.3-3.5c0.5,0.6,1.2,3.3,1.2,4.5c0.7-0.6,0.9-1.3,1.5-1.8c0.3,1,0.4,1.6,0.6,2.5
		c0.3-0.9,1-1.8,0-4.6c0.2-0.2,0.6,1,0.8,0.9c0.1,0,0.2-0.6-0.1-1.7c-0.8-0.7-0.9-1.8-0.8-1.8c0.1-0.1,0.4,1.1,0.8,1.1
		c0.1-0.9,0.3-1.8,0.2-2.5c0-0.2-0.3-1.1-1.2-1.9c-0.5-0.4-0.7-1.4-0.6-1.5c0.5,0.4,0.4,0.8,0.8,0.9c0.2-0.4,0.1-1.8-0.4-2.4
		c-0.3-0.5-0.1-0.4,0.2-0.1c0.4,0.5,0.2,0.5,0.6,0.7c0.8-1.9,0.1-2.3,0.1-2.5c0.1-0.1,0.6,0.9,1.1,0.5c-0.8-0.4-0.8-1.1-0.9-1.8
		c-0.1-0.6-0.4-0.8-0.3-0.9c0.8,0.6,1-0.1,1.1-0.2c-0.2,0.1-0.9,0.2-1-0.9c0-0.4-0.7-0.6-0.7-0.6c0.4-0.1,1.8-0.2,1.4-1.5
		c-0.2,0.3-0.6,0.8-1.4,0.6c0,0,0.5-0.1,0.4-0.7C26.5-53.1,25.5-54.5,24.1-54.3L24.1-54.3z M26.5-52.6c-0.8,0.2-1.5,1.1-2.4,0.7
		c-0.1-0.1-0.4-0.2-0.4-0.3c0.2,0.1,0.4,0.2,0.6,0.2c0,0-0.5-0.4-0.1-1c-0.6,0.4-0.8,0.3-0.8,0.1c0-0.1,0.8-0.6,1.5-0.4
		C25.5-53.1,25.9-52.7,26.5-52.6L26.5-52.6L26.5-52.6z M25.1-52.6c0,0.2-0.3,0.5-0.3,0.5l0.9-0.5c-0.2-0.1-0.7-0.4-0.9-0.5
		C24.9-53.1,25.1-52.8,25.1-52.6L25.1-52.6z M19.7-57.5c2.3,0.2,4.3,1.2,4.3,1.2v-14.9c0,0-3.4-2.4-8.9-0.2
		c-1.6,0.6-5.6,0.1-5.6,0.1v15.2C13-55.8,17.5-57.6,19.7-57.5L19.7-57.5z M18.1-65.5c0.4,0.1,1.1,0,1.3,0.6c0.2,0.6-0.2,1.4-0.7,1.5
		c-0.4,0-0.8-0.1-1.1-0.1c-0.1,0-0.2,0-0.2,0.2c0,0.1-0.2,0.2-0.2,0c0-0.2-0.1-0.9-0.1-1.1s0.2-0.2,0.2,0c0,0.2,0.1,0.4,0.3,0.6
		c0.1,0.2,1,0.4,1.3,0.1c0.3-0.2,0.2-0.6-0.1-0.8c-0.3-0.2-1.3-0.4-1.5-0.7c-0.3-0.5,0.2-0.9,0.5-1.1c0.4-0.2,0.8-0.1,1-0.1
		c0.1,0,0.3,0.1,0.4-0.1c0-0.2,0.1-0.1,0.1,0c0.1,0.5,0.1,0.2,0.1,0.7c0,0.2-0.1,0.2-0.2,0.1c-0.1-0.1-0.7-0.7-1.2-0.3
		C17.5-65.8,17.7-65.6,18.1-65.5L18.1-65.5z M19.3-62.4c-0.2,0.2-0.3,0.4-0.5,0.5c-0.1-0.1-0.4-0.3-0.5-0.4c0.3-0.1,0.4-0.3,0.5-0.5
		C18.9-62.6,19.1-62.5,19.3-62.4L19.3-62.4z M16.5-61.3c0.2-0.2,0.6-0.9,0.7-1.1c0.1-0.2,0.2-0.1,0.1,0.1c0,0.3-0.1,0.8-0.1,1
		c0,0.1,0.4,0.1,0.5,0.1c0.1,0,0.1,0.2,0,0.2c-0.1,0-0.5,0.1-0.5,0.1c-0.1,0,0,0.9,0.1,1c0.2,0.2,0.3,0.3,0.5,0
		c0.1-0.1,0.2,0,0.1,0.1c-0.1,0.1-0.4,0.4-0.5,0.6c-0.1,0.2-0.5,0-0.6-0.2c-0.2-0.3-0.1-0.9-0.1-1.6C16.7-60.9,16.3-61.1,16.5-61.3
		L16.5-61.3z M16.2-63.1c-0.2,0.1-0.5-0.1-0.6-0.3c-0.2-0.3-0.1-1.1-0.1-1.7c0,0-0.1-0.2-0.2-0.2c-0.2,0-0.2-0.1,0.1-0.2
		c0.3-0.1,0.8-0.9,0.9-1c0.1-0.2,0.2,0,0.1,0.2c-0.2,0.4-0.1,0.8-0.1,0.9c0,0.1,0.6,0,0.7,0c0.1,0,0.1,0.2,0,0.2
		c-0.1,0-0.9,0.1-0.9,0.1c-0.1,0,0.1,1.2,0.1,1.3c0,0,0.3,0.2,0.3,0.1c0.1-0.1,0.2,0,0.1,0.1C16.5-63.5,16.4-63.2,16.2-63.1
		L16.2-63.1z M13.5-61.2c0.3-0.2,0.4-0.4,0.6-0.6c0.2,0.3,0.2,0.5,0.4,0.6c0.2-0.2,0.5-0.4,0.7-0.6c0.1,0.1,0.4,0.2,0.4,0.8
		c0,0.5,0.1,1.3,0.1,1.5c0,0.1,0,0.1,0.2,0c0.1,0,0.2,0,0.1,0.1c-0.1,0.1-0.6,0.4-0.8,0.6C15-59,15-59.3,15-59.6c0.1-0.3,0-1,0-1.2
		c0-0.2-0.3-0.2-0.4-0.3c-0.2,0.1-0.2,0.1-0.3,0.3c0,0.2,0,1.8,0,2c-0.4,0-0.3,0-0.5,0c0-0.3,0-1.5,0-1.8
		C13.8-60.9,13.6-61.1,13.5-61.2L13.5-61.2z M11.1-60.4c0.2-1,1.1-1.4,1.4-1.6c0.1,0.3,0.4,0.8,0.6,1c-0.3,0.3-1.1,0.9-1.4,1.1
		c0.2,0.3,0.8,0.5,1,0.3c0.2-0.2,0.3-0.1,0.2,0.1c-0.2,0.3-0.4,0.6-0.6,0.9C11.9-58.8,11-59.4,11.1-60.4L11.1-60.4z M10.8-65.1
		c0.2-0.4,0.8-0.7,1.2-0.9c0.1,0.1,0.3,0.4,0.5,0.6c-0.2,0.1-0.4,0.3-0.5,0.5c-0.1-0.1-0.6-0.8-0.9-0.3c-0.2,0.3-0.4,1,0.2,1.5
		c0.3,0.2,0.6,0.3,1,0.2c-0.2,0.3-0.3,0.4-0.4,0.6c-0.6,0.1-0.8-0.1-1.1-0.3C10.3-63.7,10.5-64.6,10.8-65.1L10.8-65.1z M13.5-66.5
		c-0.1-0.2-0.1-0.3-0.3-0.2c-0.5,0.2-1.1,0.3-1.5,0.1c-0.5-0.3-0.8-0.4-0.9-1.4c0-0.6,0.5-1.1,0.9-1.3c0.4-0.2,1.1-0.1,1.4,0
		c0.2,0.1,0.3,0,0.3-0.2c0-0.1,0.2-0.1,0.2,0c0,0.1,0,1.4,0,1.5c0,0.1-0.2,0.1-0.2,0c0-0.1-0.1-0.4-0.1-0.6
		c-0.1-0.3-0.9-0.9-1.6-0.1c0,0-0.3,0.5-0.2,0.8c0,0.3,0.1,0.6,0.2,0.8c0.5,0.7,1.2,0.5,1.6-0.1c0.1-0.2,0.1-0.5,0.1-0.6
		c0-0.1,0.2-0.1,0.2,0s0,0.9,0,1c0,0.1,0.1,0.2,0.1,0.3C13.8-66.4,13.7-66.2,13.5-66.5L13.5-66.5z M14-65.7c0.2,0,0.4,0.4,0.6,0.7
		c-0.1,0.1-0.1,1.5-0.1,1.6c0.1,0.1,0.2,0.2,0.3,0.1c0.1-0.1,0.2,0,0.1,0.1c-0.1,0.1-0.6,0.5-0.7,0.6c-0.2-0.1-0.2-0.3-0.2-0.5
		c-0.3,0.1-0.5,0.2-0.7,0.5c-0.3-0.1-0.6-0.4-0.6-0.7c0-0.3,0.2-0.5,0.4-0.7c0,0-0.1-0.1-0.1-0.1C13-64.3,12.9-64.8,13-65
		C13.1-65.3,13.6-65.7,14-65.7L14-65.7z M16.5-69.2c-0.1,0.1-0.4,0.3-0.6,0.4c-0.2-0.1-0.3-0.4-0.4-0.4c0,0-0.1,0.1-0.2,0.1
		c0,0.2,0,1.8,0,2c-0.2,0-0.4,0-0.6,0c0-0.2,0-1.6,0-1.8c0-0.3-0.3-0.3-0.6-0.4c0.2-0.2,0.5-0.4,0.6-0.6c0.3,0.2,0.4,0.2,0.6,0.4
		c0.2-0.1,0.5-0.3,0.6-0.4c0.1,0.1,0.4,0.4,0.4,0.5C16.5-69.4,16.6-69.3,16.5-69.2L16.5-69.2z M18.9-67.5c-0.2,0.1-0.5,0.4-0.7,0.4
		c-0.7,0-1.6-0.6-1.5-1.5c0.1-1,0.9-1.4,1.3-1.4c0.4,0,0.5,0.4,0.7,0.6c-0.3,0.3-0.9,0.8-1.2,1.2c0.1,0.2,0.5,0.8,1.3,0.6
		C19.1-67.9,19.2-67.7,18.9-67.5L18.9-67.5z M21.8-69.3c-0.1,0.1-0.4,0.3-0.7,0.6c0.1,0,0.1,0,0.2,0.1c0.5,0.3,0.7,0.8,0.2,1.2
		c-0.3,0.2-0.8,0.5-1.3,0.5c-0.3,0-1-0.3-1.1-0.4c0.3-0.3,0.6-0.6,0.8-0.7c-0.3-0.3-0.7-0.6-0.4-1c0.2-0.3,0.8-0.8,1.3-0.8
		C21.4-69.8,21.6-69.5,21.8-69.3L21.8-69.3z M22.2-66.5l0.3,0.3v0.4l-0.2,0.2H22l-0.2-0.2l0-0.4L22.2-66.5L22.2-66.5z M22.8-68.2
		c-0.8,0-0.6-0.3-0.4-0.3C23-68.4,22.9-68.2,22.8-68.2L22.8-68.2z M22.8-67.7C22-67.8,22.2-68,22.3-68C23-68,22.9-67.7,22.8-67.7
		L22.8-67.7z M23.1-63.2l-0.3,0.3l-0.4,0.3c-0.2-0.2-0.3-0.3-0.4-0.4l0-1.4l-0.3-0.2c-0.2,0.2-0.3,0.1-0.2-0.1l0.6-0.6l0.1,0
		l0.3,0.4l0,1.5C22.8-63.2,22.8-63.3,23.1-63.2L23.1-63.2z M20.3-59.6c0-0.3,0.2-0.6,0.4-0.8c0,0,0,0,0,0c-0.1-0.1-0.2-0.6-0.1-0.8
		c0.1-0.2,0.6-0.7,1-0.7c0.2,0,0.6,0.5,0.8,0.7c-0.1,0.1,0.1,1.5,0.1,1.6c0.1,0.1,0.3,0.2,0.4,0.1c0.1-0.1,0.2,0,0.1,0.1
		c-0.1,0.1-0.4,0.4-0.5,0.5c-0.2-0.1-0.4-0.3-0.6-0.5c-0.3,0.1-0.7,0.3-1,0.5C20.4-59,20.3-59.3,20.3-59.6L20.3-59.6z M19.7-63.8
		c-0.2-0.6,0.2-1.1,0.4-1.3c0.2-0.1,0.5-0.4,0.7-0.6c0.2,0.1,0.4,0.2,0.5,0.3c0,0.1-0.1,0.3-0.3,0.3c-0.4,0-0.6-0.1-0.8,0.1
		c-0.2,0.2,0,0.8,0.2,1c0.2,0.2,0.7,0.4,0.8,0.2c0.1-0.3,0.3-0.1,0.1,0.1c-0.1,0.1-0.3,0.5-0.4,0.7C20.5-63,20-63.2,19.7-63.8
		L19.7-63.8z M19.9-59.7l-0.3,0.3l-0.3,0.3c-0.2-0.2-0.4-0.2-0.4-0.4l0-1.3l-0.4-0.2c-0.2,0.2-0.3,0.1-0.2-0.1l0.6-0.6l0.2,0
		l0.4,0.6l0,1.3C19.7-59.8,19.6-59.8,19.9-59.7L19.9-59.7z M20.9-60.3c-0.4,0.4,0.1,0.7,0.2,0.8c0.2-0.1,0.3-0.1,0.5-0.2
		c0-0.1-0.1-0.1-0.1-0.2c0-0.1,0-0.2,0-0.4C21.2-60.2,21.1-60.1,20.9-60.3L20.9-60.3z M21.6-60.3c0-0.2,0-0.4,0-0.6
		c0-0.2-0.5-0.5-0.6-0.5c-0.1,0-0.1,0.1-0.2,0.3c-0.1,0.1,0,0.4,0,0.5C21.1-60.4,21.3-60.3,21.6-60.3L21.6-60.3z M20.7-68.7
		c0.2-0.1,0.3-0.2,0.3-0.3c-0.2-0.2-0.6-0.4-0.8-0.4c-0.2,0-0.5,0.1-0.4,0.3c0.1,0.2,0.3,0.4,0.5,0.4C20.5-68.7,20.6-68.7,20.7-68.7
		L20.7-68.7z M20.4-68.2c-0.2,0.2-0.5,0.4-0.6,0.5c0.1,0.2,0.7,0.6,1,0.4c0.3-0.1,0.5-0.5,0.2-0.6C20.8-68,20.6-68.1,20.4-68.2
		L20.4-68.2z M17.4-68.6c0.1-0.1,0.5-0.5,0.7-0.7c-0.1-0.1-0.4-0.2-0.5-0.5C17.3-69.5,17.2-69.2,17.4-68.6L17.4-68.6z M14-63.4
		c0-0.1,0-0.1,0-0.2c0-0.1,0-0.3,0-0.5c-0.3,0.2-0.4,0.3-0.6,0.1c-0.4,0.4,0.2,0.6,0.4,0.7C13.8-63.4,13.9-63.4,14-63.4L14-63.4z
		 M14-64.3c0-0.2,0-0.3,0-0.4c0-0.2-0.3-0.5-0.4-0.5c-0.1,0-0.3,0.2-0.4,0.4c-0.1,0.1-0.1,0.4,0.1,0.6C13.5-64.1,13.6-64.1,14-64.3
		L14-64.3z M12.1-61.5c-0.8,0.5-0.7,1.1-0.4,1.4c0.2-0.1,0.7-0.5,0.9-0.7C12.4-60.8,12.1-61.2,12.1-61.5L12.1-61.5z M6.9-59.4h1.9
		v-1.8H6.9V-59.4L6.9-59.4z M6.9-65.9h1.9v-1.8H6.9V-65.9L6.9-65.9z M4.7-62.1c-2.2,0-2.2,3.2,0,3.2C6.9-58.9,6.8-62.1,4.7-62.1
		L4.7-62.1z M4.7-68.6c-2.1,0-2.2,3.2,0,3.2C6.8-65.4,6.8-68.6,4.7-68.6L4.7-68.6z M23.7-49.7c-0.1-0.3-0.3-0.6-0.6-0.7
		c-1.3-0.6-3.7,0.7-3.6-1.2c0,0-0.9,0.6-0.5,1.3C19.8-48.7,22.3-50.6,23.7-49.7L23.7-49.7z M12.4-34.4c-0.7,0.7-0.9,0.7-0.9,1
		c0.2,0.4,0.5,0.7,0.8,1.1c0.4,0.3,0.6,0.6,0.3-0.3C12.3-33.2,12.4-33.7,12.4-34.4L12.4-34.4z M7.5-47.7L7.5-47.7
		c0,1.5-4,3.6-5.8,4.5c2.7,0.9,5.3-1.6,4.9-1c-0.4,0.7-3.7,3.6-5.1,5.1c1.1,0.3,2.1-0.6,3-1.3c0.9-0.8,2.4-2.6,2.1-1.7
		c-2.4,3-4.3,9.1-3.1,9.5C4.2-34,7-41,7.1-41c0.2,0-0.2,1.9-0.3,3.1c-0.1,2.7-0.2,3.9,0.4,6.6c0.3-0.4,0.6-0.4,1.1-0.4
		c0.1-0.3,0-0.2-0.3-0.6c-0.8-1,0.1-2.4-0.3-3.2c-0.3-0.7-0.5-0.1-0.6-0.9c0.2-0.2,0.8-0.3,1-0.3c0.2-2.7,1.2-4.1,0.8-2.4
		c-0.2,0.9-0.4,2.3-0.3,2.4c0.1,0,0.1,0,0.2,0.1c0.1,0,4.6-7.5,2.1-2.3c-0.3,0.7-1.7,2.5-1.7,2.5c0.4,0.4,0.7,0.8,0.7,1
		c0,0.1,6.1-8,2-1.5c-0.3,0.4-1.5,1.7-1.8,2.1c0,0,0.1,1.5,0.1,1.5c0.6-0.4,1.5-1.3,2-1.9c-0.1-0.8,0.1-0.7,0.2-1.5
		c0.2-0.1,0.4,0.2,0.8,0.5c0.1,0.1,4.2-6.9,1.7-1.6c-0.4,0.8-1.3,1.9-1.4,1.9c0.2,0.2,0.4,0.8,0.7,1.4c0,0,5.4-7.8,2.1-1.9
		c-0.3,0.5-1.9,2.4-1.9,2.5c0.4,1,0.7,1.9,0.7,1.9c-0.1-0.8-0.3-2.3,1.3-3.5c0.2,1.4,0.6,1.4,1,1.8c0.2,0.2,0.6,1,0.6,0.3
		c0.1-1.9-0.5-1.9-1-2.7c-0.1-0.2-0.1-0.6,0-0.6c3.9,0.1,3.8,3.8,4.4,3.8c-0.3-0.9-0.4-1.8,0-2.6c-1-0.7-0.8-2-0.6-2.5
		c-1.2-1.2-0.5-3.8,0.1-4.3c-0.8-1.1,0.2-1.8,0-2.5c-0.3-2.4-2.4-1.7-2.9-3.9c-0.3,0.4-0.9,1.8-0.7,2.2c0.3,0.5,1,0.6,1.1,0.9
		c0,0.2,0.1,0.6-0.1,0.7c-0.4,0.1-0.7-0.3-1.1-0.5c-0.8-0.3-2.8,1-2.9-0.2c-0.1-0.8,0.3-0.2,0.2-0.9c0-0.7-0.4-0.2-0.4-1.2
		c0-0.7,0.8-0.9,0.9-1.2c0.1-0.7,1.4,1,2.1-0.8c-0.4,0.1-1.3-0.2-1.2-0.7c0.2-1.1,0.2-3.8-2.3-3.2c-0.9,0.2-3.4,1.5-3.8,0.1
		c-0.9,1.6,0.9,1.3,1.4,1.3c-0.2,0.2-0.5,0.4-1.2,0.2c-1.4,0.9-6.6,4.2-8.1,5.1C4.4-45.7,7.5-47.7,7.5-47.7L7.5-47.7z M9-29.7
		c-0.5-0.2-1-0.3-1.5-0.7c0.3,1.1,0.5,2,1.1,3.1C9-26.6,9.6-28.1,9-29.7L9-29.7z"/>
</g>
<g>
	<path style="&st0;" d="M40.7,1.1c0.6,1.1-0.1,2.5-1.6,2.2c-0.7-0.2-1.4-1.2-2.1-1.8c-0.7-0.7-1.6-1.3-2.1-1.8
		c-0.4-0.6-0.3,0.4-0.3,1c0,0.7,0,1.4,0,1.7c-0.1,0.6-0.4,1-1,1.1c-0.3,0-0.6,0-0.9,0c-0.6-0.1-0.9-0.5-1-1.1c0-2.6,0-5.3,0-7.9
		c0-1.5,2.8-1.5,2.8,0c0,0.9,0,1.8,0,2.8c0.5-0.2,0.7-0.6,1.1-1c0.3-0.2,0.6-0.5,0.8-0.8c0.5-0.4,0.9-0.9,1.4-1.3
		c0.6-1.2,2.7-1.1,2.9,0.4c0.2,2-2.5,2.7-3,3.8C38.4-0.7,40.1,0,40.7,1.1z"/>
	<path style="&st0;" d="M31-6.6c0.2,1.2-0.9,2.7-1.4,3.8c-1.1,2.5-2,4.6-3.1,7c-0.5,1.2-0.9,2.5-1.9,3.1c-4,0.3-1-4.2-0.4-5.8
		C23.3-0.1,22.1-2.1,21-4c-0.5-0.9-1.7-2.5-0.5-3.4c0.5-0.3,1.5-0.4,1.9,0c1.4,1.1,2.2,4.1,3.4,5.4c0.4-0.7,0.8-1.8,1.3-2.8
		c0.4-0.9,0.7-2.2,1.4-2.6C29.4-8.1,30.9-7.5,31-6.6z"/>
</g>
</svg>
